<svg width="13" height="19" viewBox="0 0 13 19" fill="none" xmlns="http://www.w3.org/2000/svg">
<path fill-rule="evenodd" clip-rule="evenodd" d="M3.01315 -6.79493e-05C3.23938 -6.79493e-05 3.45634 0.0948179 3.61626 0.264042L11.7515 8.86246C12.0845 9.21443 12.0845 9.7852 11.7515 10.1372L3.61626 18.7358C3.45634 18.9051 3.23938 18.9997 3.01315 18.9997C2.78694 18.9997 2.57006 18.9051 2.41005 18.7358L0.258928 16.462C-0.0741919 16.1103 -0.07408 15.5393 0.258928 15.1873L5.63986 9.49982L0.258928 3.8126C-0.07408 3.46062 -0.0741919 2.88961 0.258928 2.53763L2.41005 0.264042C2.57006 0.0948179 2.78694 -6.79493e-05 3.01315 -6.79493e-05Z" fill="#FCC44D"/>
</svg>
